<?xml version="1.0" standalone="no"?>
<!DOCTYPE svg PUBLIC "-//W3C//DTD SVG 20010904//EN"
 "http://www.w3.org/TR/2001/REC-SVG-20010904/DTD/svg10.dtd">
<svg version="1.0" xmlns="http://www.w3.org/2000/svg"
 width="194.000000pt" height="50.000000pt" viewBox="0 0 291.000000 75.000000"
 preserveAspectRatio="xMidYMid meet">

<g transform="translate(0.000000,75.000000) scale(0.100000,-0.100000)"
fill="#000000" stroke="none">
<path d="M1045 525 c-19 -18 -25 -35 -25 -68 0 -40 6 -51 56 -107 57 -64 68
-101 32 -108 -15 -3 -18 4 -18 32 0 34 -2 36 -35 36 -35 0 -35 -1 -35 -43 0
-52 20 -83 60 -92 73 -16 120 23 120 100 0 46 -18 80 -69 130 -41 39 -54 75
-26 75 8 0 15 -9 15 -20 0 -17 7 -20 41 -20 41 0 41 0 35 33 -14 72 -102 102
-151 52z"/>
<path d="M1210 360 l0 -190 35 0 35 0 1 128 1 127 19 -105 c28 -159 25 -152
62 -148 l32 3 20 125 20 125 3 -127 3 -128 34 0 35 0 0 190 0 190 -59 0 -59 0
-13 -100 c-7 -56 -15 -103 -19 -105 -4 -2 -13 43 -20 100 l-13 105 -58 0 -59
0 0 -190z"/>
<path d="M1520 360 l0 -190 35 0 35 0 0 75 0 75 29 0 c45 0 81 35 81 78 l0 36
17 -24 c9 -14 36 -46 60 -73 46 -50 55 -89 21 -95 -15 -3 -18 4 -18 32 0 34
-2 36 -35 36 -35 0 -35 -1 -35 -43 0 -52 20 -83 60 -92 73 -16 120 23 120 100
0 46 -18 80 -69 130 -41 39 -54 75 -26 75 8 0 15 -9 15 -20 0 -17 7 -20 41
-20 41 0 41 0 35 33 -17 89 -136 106 -171 24 -9 -20 -14 -25 -15 -14 0 10 -11
29 -25 42 -21 22 -33 25 -90 25 l-65 0 0 -190z m105 75 c0 -30 -4 -41 -17 -43
-15 -3 -18 4 -18 43 0 39 3 46 18 43 13 -2 17 -13 17 -43z"/>
</g>
</svg>
