<?xml version="1.0" standalone="no"?>
<!DOCTYPE svg PUBLIC "-//W3C//DTD SVG 20010904//EN"
 "http://www.w3.org/TR/2001/REC-SVG-20010904/DTD/svg10.dtd">
<svg version="1.0" xmlns="http://www.w3.org/2000/svg"
 width="94.000000pt" height="50.000000pt" viewBox="0 0 388.000000 100.000000"
 preserveAspectRatio="xMidYMid meet">

<g transform="translate(0.000000,100.000000) scale(0.100000,-0.100000)"
fill="#000000" stroke="none">
<path d="M1430 896 c-90 -88 -111 -104 -146 -109 -54 -9 -90 -46 -109 -112
-13 -44 -30 -66 -116 -150 l-100 -98 111 -112 c60 -62 110 -119 110 -128 0
-24 46 -73 82 -87 18 -7 55 -34 83 -59 l50 -46 -45 48 -44 47 48 0 c99 0 146
62 146 193 0 41 -5 88 -10 102 -6 15 -51 69 -100 120 -72 75 -90 99 -90 123 0
31 19 46 45 36 9 -4 15 -19 15 -40 l0 -34 70 0 c70 0 70 0 70 28 0 87 -50 157
-120 168 l-42 7 103 103 c57 57 101 104 99 104 -3 0 -52 -47 -110 -104z m-255
-330 c5 -30 24 -57 91 -128 47 -49 89 -101 94 -114 20 -51 7 -114 -21 -114
-23 0 -39 35 -39 86 l0 54 -65 0 -65 0 0 -62 0 -63 -100 100 -100 100 97 97
c54 54 99 95 100 91 1 -5 4 -25 8 -47z"/>
<path d="M2490 898 l105 -108 -36 0 c-55 0 -101 -36 -121 -95 -13 -40 -18 -46
-23 -30 -32 104 -69 125 -217 125 l-108 0 0 -350 0 -350 65 0 65 0 0 135 0
135 45 0 c99 0 143 43 153 152 l5 59 24 -43 c14 -24 58 -77 98 -119 54 -55 75
-85 80 -111 8 -43 0 -74 -22 -82 -29 -11 -43 13 -43 75 l0 59 -71 0 -72 0 7
-77 c4 -43 15 -93 25 -112 21 -42 73 -71 125 -71 l40 0 -44 -47 -45 -47 51 46
c28 25 64 49 81 52 36 8 67 38 87 86 8 20 60 80 115 135 56 54 101 104 101
110 0 6 -47 57 -105 115 -58 58 -105 113 -105 123 0 56 -70 127 -126 127 -10
0 -68 48 -129 108 l-110 107 105 -107z m118 -240 c7 -7 12 -25 12 -40 0 -28 0
-28 69 -28 54 0 70 3 73 15 2 10 35 -17 98 -80 l95 -95 -98 -98 -97 -97 0 58
c0 82 -19 118 -114 216 -91 94 -106 120 -81 145 20 19 27 20 43 4z m-327 -25
c14 -36 6 -123 -12 -134 -8 -5 -22 -9 -31 -9 -16 0 -18 11 -18 85 0 84 0 85
25 85 19 0 28 -8 36 -27z"/>
<path d="M1520 440 l0 -350 60 0 60 0 1 243 c0 133 2 238 5 232 2 -5 19 -104
39 -220 19 -116 38 -220 40 -232 5 -21 11 -23 65 -23 59 0 59 0 65 33 3 17 21
124 39 237 l34 205 1 -237 1 -238 65 0 65 0 0 350 0 351 -107 -3 -107 -3 -27
-198 c-15 -109 -29 -200 -32 -203 -5 -5 -8 10 -38 239 l-22 167 -104 0 -103 0
0 -350z"/>
</g>
</svg>
